inDegrees=no
num_controls=7
num_derivatives=13
num_iterations=144
num_multipliers=7
num_parameters=0
num_slacks=7
num_states=26
objective=5.648361
objective_accelerations=0.707102
objective_balance=0.034575
objective_effort=0.364547
objective_height=4.453390
objective_ligament=0.088747
solver_duration=1615.535786
status=Solve_Succeeded
success=true
DataType=double
version=3
OpenSimVersion=4.4-2022-07-23-0e9fedc
endheader
time	/jointset/ground_pelvis/pelvis_tilt/value	/jointset/ground_pelvis/pelvis_tx/value	/jointset/ground_pelvis/pelvis_ty/value	/jointset/hip_l/hip_flexion_l/value	/jointset/hip_l/hip_adduction_l/value	/jointset/hip_l/hip_rotation_l/value	/jointset/back/lumbar_extension/value	/jointset/patellofemoral_l/patellar_flexion_l/value	/jointset/knee_l/knee_flexion_l/value	/jointset/knee_l/knee_adduction_l/value	/jointset/knee_l/knee_rotation_l/value	/jointset/ankle_l/ankle_angle_l/value	/jointset/subtalar_l/subtalar_angle_l/value	/jointset/ground_pelvis/pelvis_tilt/speed	/jointset/ground_pelvis/pelvis_tx/speed	/jointset/ground_pelvis/pelvis_ty/speed	/jointset/hip_l/hip_flexion_l/speed	/jointset/hip_l/hip_adduction_l/speed	/jointset/hip_l/hip_rotation_l/speed	/jointset/back/lumbar_extension/speed	/jointset/patellofemoral_l/patellar_flexion_l/speed	/jointset/knee_l/knee_flexion_l/speed	/jointset/knee_l/knee_adduction_l/speed	/jointset/knee_l/knee_rotation_l/speed	/jointset/ankle_l/ankle_angle_l/speed	/jointset/subtalar_l/subtalar_angle_l/speed	/forceset/tau_hip_flexion_l	/forceset/tau_hip_adduction_l	/forceset/tau_hip_rotation_l	/forceset/tau_knee_flexion_l	/forceset/tau_ankle_angle_l	/forceset/tau_subtalar_angle_l	/forceset/tau_lumbar_extension	lambda_cid13_p0	lambda_cid13_p1	lambda_cid13_p2	lambda_cid13_p3	lambda_cid13_p4	lambda_cid13_p5	lambda_cid14_p0	/jointset/ground_pelvis/pelvis_tilt/accel	/jointset/ground_pelvis/pelvis_tx/accel	/jointset/ground_pelvis/pelvis_ty/accel	/jointset/hip_l/hip_flexion_l/accel	/jointset/hip_l/hip_adduction_l/accel	/jointset/hip_l/hip_rotation_l/accel	/jointset/back/lumbar_extension/accel	/jointset/patellofemoral_l/patellar_flexion_l/accel	/jointset/knee_l/knee_flexion_l/accel	/jointset/knee_l/knee_adduction_l/accel	/jointset/knee_l/knee_rotation_l/accel	/jointset/ankle_l/ankle_angle_l/accel	/jointset/subtalar_l/subtalar_angle_l/accel	gamma_cid13_p0	gamma_cid13_p1	gamma_cid13_p2	gamma_cid13_p3	gamma_cid13_p4	gamma_cid13_p5	gamma_cid14_p0
1.5	-0.5063977139433664	-0.09791397606817118	0.7521821018066187	1.25801005452415	-0.4286253919243489	-0.2620944029070861	-0.2350737829428734	0.6541596039592362	0.6541596039594	-0.1678304466516891	-0.1519290303277224	-0.05839478754976002	-0.10721746318637	1.05325940071575	0.4483763148306786	0.5531131728571156	-2.815710982201177	0.2251059922667392	-0.5924040182063758	0.2842826505828834	-1.60208842366328	-1.602088423663282	-0.02700272871595388	0.1219385947851516	0.07236148218849155	0.2744649982880587	-0.2395092652354155	0.01932235857628119	-0.0004369068441094456	-0.1558847050546208	0.1109298302841321	0.05729833466246022	0.2113236525002278	2.113295270040054	-27.32350752963908	6.38328503374843	-12.55031879047669	-522.5376757176007	-60.3321862952276	-32.09647448779042	0.9199142112712781	0.9534810291821606	-0.4062632850220224	-1.838895466877174	0.5513579033446008	-0.05117524272296675	1.736911436515409	-1.099931695435487	-1.09993169543549	0.08006612447825875	0.3170728185581365	0.01740671909502633	0.627937910984576	-3.43681006820638e-08	8.050367568483892e-07	1.822520205082948e-08	3.078996296368653e-07	2.474038302017095e-07	-3.973611490086121e-07	1.491288255158228e-07
1.51	-0.4958193516513903	-0.0933829136095401	0.757691786760931	1.229763046852741	-0.4263480133884757	-0.2680217725567201	-0.2321456252291052	0.6380861502624743	0.6380861502624968	-0.1680976720608893	-0.1506959221895104	-0.05767033931578216	-0.1044426724397342	1.06225349200846	0.4577835307597909	0.5487033063947405	-2.833299124619801	0.2303415312722306	-0.5929949869676319	0.3013361306672605	-1.612378779226875	-1.612378779226868	-0.0264422263189815	0.124670297801399	0.07253492692480978	0.2804706598149226	-0.2313061802833017	0.01872926134645315	-0.0003693207349513471	-0.154175224845385	0.1082259030271352	0.05541889475331505	0.2049880447892983	1.542744503199996	-26.48290144456527	6.335547371670105	-12.01863209638183	-517.7895117006898	-60.36803476123315	-32.76309704979816	0.8652061490925342	0.9265115537064598	-0.476372345508202	-1.66007229965211	0.5052474706125126	-0.05168500792841142	1.687652068945872	-0.9600863376739166	-0.9600863376727297	0.04424912937305695	0.2492540636606375	0.01832971622215537	0.5833574744820083	-4.59690627707297e-08	8.622726956141332e-07	6.063982377246443e-08	3.244641890955727e-07	2.581030838916561e-07	-3.860761533098597e-07	1.474618416265756e-07
1.52	-0.4851558385343269	-0.08875934505583156	0.7631537682468875	1.201351898023087	-0.4240191603482623	-0.2739527773569805	-0.2290473155595818	0.6219164932398771	0.6219164932398038	-0.1683592510796346	-0.1494358900170958	-0.05694395336137544	-0.1016085296376411	1.070289565734045	0.4668775338461737	0.5435724791860146	-2.848539213850281	0.2354008931361723	-0.5931310483329536	0.31831304173352	-1.621329088824565	-1.621329088824551	-0.02587345063936837	0.1273234016377507	0.07274902627400325	0.2863354093795724	-0.2231030953311368	0.0181361641166199	-0.0003017346254855115	-0.1524657446361811	0.105521975770131	0.0535394548441573	0.198652437078419	0.9608886732539812	-25.64102665589452	6.288419315488506	-11.4502055458336	-513.1815925569697	-60.42992215526525	-33.41592802329759	0.7283106978465193	0.8908384606361911	-0.5504554342922211	-1.369284829248092	0.5161224750346528	0.03980623646382719	1.721597632892059	-0.8319225022545714	-0.8319225022545661	0.08172078100645472	0.3013529825789517	0.02553764166997382	0.5997555185417013	-5.1775146879173e-08	9.034693705389353e-07	7.176812313491707e-08	3.327956395262381e-07	2.732360204229429e-07	-3.742279881146444e-07	1.473958236807862e-07
1.53	-0.4744167250813257	-0.08404653981011471	0.7685608822757022	1.172800107701883	-0.4216406494761163	-0.2798829383598566	-0.2257799209208828	0.6056640705150695	0.6056640705148596	-0.1686151835835873	-0.1481497727054775	-0.05621528907791312	-0.09871653619258067	1.07736732559866	0.4756159639013668	0.5377331761546796	-2.861407675006264	0.2402689584445083	-0.5928303300702652	0.3351309502688066	-1.628921244037769	-1.628921244037749	-0.02531013860464627	0.1298824393669575	0.07298539347442505	0.2920338641152392	-0.2149272455649344	0.01717271865295077	-0.000233724565472874	-0.1504822997512612	0.1023167292550445	0.05189821151840482	0.1922527478900606	0.2230857944791973	-24.86482180648777	6.239797355328975	-10.72834341498653	-508.515554407002	-60.67925932073418	-34.05171473792669	0.6726208881574122	0.8552789997160037	-0.6181795602928917	-1.183964938549672	0.4671203390592169	0.03596864498981073	1.656647103329278	-0.6877601964559694	-0.6877601964551913	0.04426499014170018	0.2304704556385222	0.02292116454263092	0.5503267116147965	-5.142417313362989e-08	9.276243276327365e-07	4.965470499073889e-08	3.323794116146091e-07	2.930797449731536e-07	-3.617814553294373e-07	1.490308320499207e-07
1.54	-0.4636118115782057	-0.0792483635194946	0.7739061009096564	1.144131965133159	-0.4192144635948335	-0.2858079393753432	-0.222345395268934	0.5893427466049602	0.58934274660469	-0.1688653572519355	-0.1468386067591882	-0.05548421414138473	-0.09576847094805678	1.083449575758827	0.4839517428268314	0.5311934002139495	-2.871809663353262	0.2449358949659086	-0.5920990508548524	0.3517392443833856	-1.63510932587508	-1.635109325875055	-0.02472168355247932	0.1323331285980484	0.07323115688741767	0.2975497692723267	-0.2067513957987621	0.0162092731892364	-0.0001657145047683318	-0.1484988548664396	0.09911148273993299	0.05025696819258545	0.1858530587016971	-0.5264777634810773	-24.08783997482281	6.192516237160444	-9.965948651972612	-503.9939741439957	-60.95599852587026	-34.66718389939388	0.5292087569570603	0.8103082346904038	-0.6905500161713171	-0.8759902674508868	0.4758967176474745	0.1259184270086084	1.679674748750697	-0.5511078270761171	-0.5511078270761174	0.08674938449546148	0.279683282955754	0.0274168841840473	0.5632456028257994	-5.191277849911963e-08	9.527858751074793e-07	3.679295901994057e-08	3.305843084959532e-07	3.131347950872175e-07	-3.479110930465328e-07	1.493388492674427e-07
1.55	-0.4527511051926651	-0.07436891817231582	0.77918249978176	1.115372123850799	-0.4167426657618491	-0.2917235249071961	-0.2187461149992569	0.5729665579906594	0.5729665579904285	-0.1691096291267581	-0.1455035008885288	-0.05475062773363103	-0.09276621573318698	1.088514351779177	0.4918614857086601	0.5239756328724458	-2.879732426812099	0.2493847794852703	-0.5909432175692482	0.3680598988472235	-1.639884587743532	-1.6398845877435	-0.02413574637736533	0.1346711832073468	0.07349102851892594	0.3028662866911231	-0.1984099386576626	0.01524147574162573	-0.0001654406168363376	-0.1468040733943533	0.09655353138152249	0.04819516642601474	0.179278552012354	-1.081921378187759	-23.17759862224014	6.141580297701206	-9.29944391195612	-499.5301699384682	-60.90959876404029	-35.25889934685734	0.4684872297721547	0.7699962438789828	-0.7539323512454745	-0.6865128243807738	0.4233621977148455	0.1217839388732669	1.599724189554269	-0.4041934681561121	-0.404193468154908	0.04425704800499288	0.2082681868926514	0.02600816393697532	0.5104475856466434	-5.33687250142776e-08	9.791071897602631e-07	3.459074837934019e-08	3.27200501334419e-07	3.334333290031124e-07	-3.324002315597598e-07	1.481179418972372e-07
1.56	-0.4418450760058894	-0.06941263761052846	0.7843834125288279	1.086545836245995	-0.4142275835079573	-0.2976252784742798	-0.214985335506068	0.5565499251373704	0.5565499251372047	-0.1693480933969998	-0.1441455341444037	-0.05401429543730165	-0.08971187678928154	1.092514136007462	0.4993187857485489	0.5160961752068726	-2.885098927842133	0.2535927791500201	-0.5893326579021719	0.3840390890852163	-1.643198173669034	-1.643198173668994	-0.02356016264284272	0.1369053032956767	0.0737803346025411	0.3079665150795186	-0.1900684815165015	0.01427367829399265	-0.0001651667288171132	-0.145109291922286	0.09399558002309283	0.04613336465941027	0.1727040453230869	-1.649355939722352	-22.26567660355057	6.090855011227211	-8.589524927856926	-495.2044755335268	-60.88983393257108	-35.82346601892615	0.3162103985439723	0.7198196663023988	-0.8228880809852589	-0.3647377816901961	0.4277197467251095	0.2168637033029742	1.611381903581825	-0.2587726384860659	-0.2587726384860617	0.08467869637719991	0.2588963787620584	0.0333037746053635	0.5199877967455583	-5.649815040279896e-08	1.003560447989184e-06	3.936395173750815e-08	3.250971124682709e-07	3.499680651237616e-07	-3.138148822055162e-07	1.454454120301846e-07
1.57	-0.4309044007487984	-0.06438418515474538	0.7895022919799179	1.057678776813253	-0.4116716272754162	-0.303508778542091	-0.2110667466274317	0.5401075254170885	0.5401075254169606	-0.1695807928564509	-0.1427658285287189	-0.05327497073658185	-0.0866076475375806	1.095437207877018	0.5062813071973422	0.5075752113055831	-2.887865984583154	0.2575543411183114	-0.5872945808069566	0.3995962875841877	-1.645025106269748	-1.645025106269729	-0.02298161772652257	0.13901364770462	0.07408529250797445	0.312836454657607	-0.1817803801634915	0.01308505589022497	-0.0001857426071895041	-0.1433066910597658	0.09126380578019369	0.04412956324807389	0.166101636361404	-2.280352569223667	-21.36450947411491	6.03806860537464	-7.787736387399979	-490.9668862976217	-60.91233203679303	-36.35739362560678	0.2527720899573848	0.6709735133832696	-0.8823023786938706	-0.1656666361998119	0.3735585290638118	0.2083332692473834	1.51552896444302	-0.1061816275578467	-0.1061816275609607	0.04436573052844289	0.1834122113175443	0.02919524719712421	0.4638956973247938	-6.171942438302454e-08	1.025678635688277e-06	5.285642259413647e-08	3.245942464713556e-07	3.61798054000354e-07	-2.913864230169346e-07	1.409583540420731e-07
